<?xml version="1.0" standalone="no"?><!DOCTYPE svg PUBLIC "-//W3C//DTD SVG 1.1//EN" "http://www.w3.org/Graphics/SVG/1.1/DTD/svg11.dtd"><svg xmlns:xlink="http://www.w3.org/1999/xlink" version="1.1" style="font-family:'lucida grande', 'lucida sans unicode', arial, helvetica, sans-serif;font-size:12px;" xmlns="http://www.w3.org/2000/svg" width="600" height="400"><desc>Created with Highcharts 4.2.7</desc><defs><clipPath id="highcharts-17"><rect x="1" y="1" width="543" height="317"></rect></clipPath></defs><rect x="45" y="10" width="545" height="319" fill="#ffffff"></rect><path fill="rgb(255, 255, 255)" fill-opacity=" .5" d="M 45 329.5 L 590 329.5 590 276.5 45 276.5"></path><path fill="rgb(255, 255, 255)" fill-opacity=" .5" d="M 45 223.5 L 590 223.5 590 170.5 45 170.5"></path><path fill="rgb(255, 255, 255)" fill-opacity=" .5" d="M 45 116.5 L 590 116.5 590 63.5 45 63.5"></path><g class="highcharts-grid"></g><g class="highcharts-grid"><path fill="none" d="M 45 329.5 L 590 329.5" stroke="#C0C0C0" stroke-width="1" opacity="1"></path><path fill="none" d="M 45 276.5 L 590 276.5" stroke="#C0C0C0" stroke-width="1" opacity="1"></path><path fill="none" d="M 45 223.5 L 590 223.5" stroke="#C0C0C0" stroke-width="1" opacity="1"></path><path fill="none" d="M 45 170.5 L 590 170.5" stroke="#C0C0C0" stroke-width="1" opacity="1"></path><path fill="none" d="M 45 116.5 L 590 116.5" stroke="#C0C0C0" stroke-width="1" opacity="1"></path><path fill="none" d="M 45 63.5 L 590 63.5" stroke="#C0C0C0" stroke-width="1" opacity="1"></path><path fill="none" d="M 45 9.5 L 590 9.5" stroke="#C0C0C0" stroke-width="1" opacity="1"></path></g><rect x="45" y="10" width="545" height="319" stroke="#026FC1" stroke-width="2" fill="none"></rect><g class="highcharts-axis"><path fill="none" d="M 44.5 329 L 44.5 339" stroke="#C0D0E0" stroke-width="1" opacity="1"></path><path fill="none" d="M 112.5 329 L 112.5 339" stroke="#C0D0E0" stroke-width="1" opacity="1"></path><path fill="none" d="M 180.5 329 L 180.5 339" stroke="#C0D0E0" stroke-width="1" opacity="1"></path><path fill="none" d="M 248.5 329 L 248.5 339" stroke="#C0D0E0" stroke-width="1" opacity="1"></path><path fill="none" d="M 317.5 329 L 317.5 339" stroke="#C0D0E0" stroke-width="1" opacity="1"></path><path fill="none" d="M 385.5 329 L 385.5 339" stroke="#C0D0E0" stroke-width="1" opacity="1"></path><path fill="none" d="M 453.5 329 L 453.5 339" stroke="#C0D0E0" stroke-width="1" opacity="1"></path><path fill="none" d="M 521.5 329 L 521.5 339" stroke="#C0D0E0" stroke-width="1" opacity="1"></path><path fill="none" d="M 590.5 329 L 590.5 339" stroke="#C0D0E0" stroke-width="1" opacity="1"></path><path fill="none" d="M 45 329.5 L 590 329.5" stroke="#C0D0E0" stroke-width="1"></path></g><g class="highcharts-axis"><path fill="none" d="M 45 329.5 L 35 329.5" stroke="#C0D0E0" stroke-width="1" opacity="1"></path><path fill="none" d="M 45 276.5 L 35 276.5" stroke="#C0D0E0" stroke-width="1" opacity="1"></path><path fill="none" d="M 45 223.5 L 35 223.5" stroke="#C0D0E0" stroke-width="1" opacity="1"></path><path fill="none" d="M 45 170.5 L 35 170.5" stroke="#C0D0E0" stroke-width="1" opacity="1"></path><path fill="none" d="M 45 116.5 L 35 116.5" stroke="#C0D0E0" stroke-width="1" opacity="1"></path><path fill="none" d="M 45 63.5 L 35 63.5" stroke="#C0D0E0" stroke-width="1" opacity="1"></path><path fill="none" d="M 45 9.5 L 35 9.5" stroke="#C0D0E0" stroke-width="1" opacity="1"></path></g><g class="highcharts-series-group"><g class="highcharts-series highcharts-series-0" transform="translate(45,10) scale(1 1)" clip-path="url(#highcharts-17)"></g><g class="highcharts-markers highcharts-series-0" transform="translate(45,10) scale(1 1)" clip-path="none"><path fill="#50B432" d="M 429 51.166666666666686 C 431.664 51.166666666666686 431.664 55.166666666666686 429 55.166666666666686 C 426.336 55.166666666666686 426.336 51.166666666666686 429 51.166666666666686 Z"></path><path fill="#50B432" d="M 415 263.8333333333333 C 417.664 263.8333333333333 417.664 267.8333333333333 415 267.8333333333333 C 412.336 267.8333333333333 412.336 263.8333333333333 415 263.8333333333333 Z"></path><path fill="#50B432" d="M 197 130.91666666666669 C 199.664 130.91666666666669 199.664 134.91666666666669 197 134.91666666666669 C 194.336 134.91666666666669 194.336 130.91666666666669 197 130.91666666666669 Z"></path><path fill="#50B432" d="M 367 24.58333333333337 C 369.664 24.58333333333337 369.664 28.58333333333337 367 28.58333333333337 C 364.336 28.58333333333337 364.336 24.58333333333337 367 24.58333333333337 Z"></path><path fill="#50B432" d="M 313 263.8333333333333 C 315.664 263.8333333333333 315.664 267.8333333333333 313 267.8333333333333 C 310.336 267.8333333333333 310.336 263.8333333333333 313 263.8333333333333 Z"></path><path fill="#50B432" d="M 456 24.58333333333337 C 458.664 24.58333333333337 458.664 28.58333333333337 456 28.58333333333337 C 453.336 28.58333333333337 453.336 24.58333333333337 456 24.58333333333337 Z"></path><path fill="#50B432" d="M 231 237.25 C 233.664 237.25 233.664 241.25 231 241.25 C 228.336 241.25 228.336 237.25 231 237.25 Z"></path><path fill="#50B432" d="M 177 24.58333333333337 C 179.664 24.58333333333337 179.664 28.58333333333337 177 28.58333333333337 C 174.336 28.58333333333337 174.336 24.58333333333337 177 24.58333333333337 Z"></path><path fill="#50B432" d="M 245 184.08333333333334 C 247.664 184.08333333333334 247.664 188.08333333333334 245 188.08333333333334 C 242.336 188.08333333333334 242.336 184.08333333333334 245 184.08333333333334 Z"></path><path fill="#50B432" d="M 231 237.25 C 233.664 237.25 233.664 241.25 231 241.25 C 228.336 241.25 228.336 237.25 231 237.25 Z"></path><path fill="#50B432" d="M 231 130.91666666666669 C 233.664 130.91666666666669 233.664 134.91666666666669 231 134.91666666666669 C 228.336 134.91666666666669 228.336 130.91666666666669 231 130.91666666666669 Z"></path><path fill="#50B432" d="M 183 184.08333333333334 C 185.664 184.08333333333334 185.664 188.08333333333334 183 188.08333333333334 C 180.336 188.08333333333334 180.336 184.08333333333334 183 184.08333333333334 Z"></path><path fill="#50B432" d="M 252 210.66666666666669 C 254.664 210.66666666666669 254.664 214.66666666666669 252 214.66666666666669 C 249.336 214.66666666666669 249.336 210.66666666666669 252 210.66666666666669 Z"></path><path fill="#50B432" d="M 231 24.58333333333337 C 233.664 24.58333333333337 233.664 28.58333333333337 231 28.58333333333337 C 228.336 28.58333333333337 228.336 24.58333333333337 231 24.58333333333337 Z"></path><path fill="#50B432" d="M 177 24.58333333333337 C 179.664 24.58333333333337 179.664 28.58333333333337 177 28.58333333333337 C 174.336 28.58333333333337 174.336 24.58333333333337 177 24.58333333333337 Z"></path><path fill="#50B432" d="M 265 263.8333333333333 C 267.664 263.8333333333333 267.664 267.8333333333333 265 267.8333333333333 C 262.336 267.8333333333333 262.336 263.8333333333333 265 263.8333333333333 Z"></path><path fill="#50B432" d="M 81 130.91666666666669 C 83.664 130.91666666666669 83.664 134.91666666666669 81 134.91666666666669 C 78.336 134.91666666666669 78.336 130.91666666666669 81 130.91666666666669 Z"></path><path fill="#50B432" d="M 177 263.8333333333333 C 179.664 263.8333333333333 179.664 267.8333333333333 177 267.8333333333333 C 174.336 267.8333333333333 174.336 263.8333333333333 177 263.8333333333333 Z"></path><path fill="#50B432" d="M 408 263.8333333333333 C 410.664 263.8333333333333 410.664 267.8333333333333 408 267.8333333333333 C 405.336 267.8333333333333 405.336 263.8333333333333 408 263.8333333333333 Z"></path><path fill="#50B432" d="M 449 184.08333333333334 C 451.664 184.08333333333334 451.664 188.08333333333334 449 188.08333333333334 C 446.336 188.08333333333334 446.336 184.08333333333334 449 184.08333333333334 Z"></path><path fill="#50B432" d="M 190 24.58333333333337 C 192.664 24.58333333333337 192.664 28.58333333333337 190 28.58333333333337 C 187.336 28.58333333333337 187.336 24.58333333333337 190 24.58333333333337 Z"></path><path fill="#50B432" d="M 265 24.58333333333337 C 267.664 24.58333333333337 267.664 28.58333333333337 265 28.58333333333337 C 262.336 28.58333333333337 262.336 24.58333333333337 265 24.58333333333337 Z"></path><path fill="#50B432" d="M 286 51.166666666666686 C 288.664 51.166666666666686 288.664 55.166666666666686 286 55.166666666666686 C 283.336 55.166666666666686 283.336 51.166666666666686 286 51.166666666666686 Z"></path><path fill="#50B432" d="M 483 237.25 C 485.664 237.25 485.664 241.25 483 241.25 C 480.336 241.25 480.336 237.25 483 237.25 Z"></path><path fill="#50B432" d="M 231 263.8333333333333 C 233.664 263.8333333333333 233.664 267.8333333333333 231 267.8333333333333 C 228.336 267.8333333333333 228.336 263.8333333333333 231 263.8333333333333 Z"></path><path fill="#50B432" d="M 211 51.166666666666686 C 213.664 51.166666666666686 213.664 55.166666666666686 211 55.166666666666686 C 208.336 55.166666666666686 208.336 51.166666666666686 211 51.166666666666686 Z"></path><path fill="#50B432" d="M 361 24.58333333333337 C 363.664 24.58333333333337 363.664 28.58333333333337 361 28.58333333333337 C 358.336 28.58333333333337 358.336 24.58333333333337 361 24.58333333333337 Z"></path><path fill="#50B432" d="M 231 24.58333333333337 C 233.664 24.58333333333337 233.664 28.58333333333337 231 28.58333333333337 C 228.336 28.58333333333337 228.336 24.58333333333337 231 24.58333333333337 Z"></path><path fill="#50B432" d="M 238 130.91666666666669 C 240.664 130.91666666666669 240.664 134.91666666666669 238 134.91666666666669 C 235.336 134.91666666666669 235.336 130.91666666666669 238 130.91666666666669 Z"></path><path fill="#50B432" d="M 252 77.75 C 254.664 77.75 254.664 81.75 252 81.75 C 249.336 81.75 249.336 77.75 252 77.75 Z"></path><path fill="#50B432" d="M 340 237.25 C 342.664 237.25 342.664 241.25 340 241.25 C 337.336 241.25 337.336 237.25 340 237.25 Z"></path><path fill="#50B432" d="M 183 24.58333333333337 C 185.664 24.58333333333337 185.664 28.58333333333337 183 28.58333333333337 C 180.336 28.58333333333337 180.336 24.58333333333337 183 24.58333333333337 Z"></path><path fill="#50B432" d="M 483 210.66666666666669 C 485.664 210.66666666666669 485.664 214.66666666666669 483 214.66666666666669 C 480.336 214.66666666666669 480.336 210.66666666666669 483 210.66666666666669 Z"></path><path fill="#50B432" d="M 340 210.66666666666669 C 342.664 210.66666666666669 342.664 214.66666666666669 340 214.66666666666669 C 337.336 214.66666666666669 337.336 210.66666666666669 340 210.66666666666669 Z"></path><path fill="#50B432" d="M 177 237.25 C 179.664 237.25 179.664 241.25 177 241.25 C 174.336 241.25 174.336 237.25 177 237.25 Z"></path><path fill="#50B432" d="M 449 104.33333333333334 C 451.664 104.33333333333334 451.664 108.33333333333334 449 108.33333333333334 C 446.336 108.33333333333334 446.336 104.33333333333334 449 104.33333333333334 Z"></path><path fill="#50B432" d="M 306 263.8333333333333 C 308.664 263.8333333333333 308.664 267.8333333333333 306 267.8333333333333 C 303.336 267.8333333333333 303.336 263.8333333333333 306 263.8333333333333 Z"></path><path fill="#50B432" d="M 122 24.58333333333337 C 124.664 24.58333333333337 124.664 28.58333333333337 122 28.58333333333337 C 119.336 28.58333333333337 119.336 24.58333333333337 122 24.58333333333337 Z"></path><path fill="#50B432" d="M 258 51.166666666666686 C 260.664 51.166666666666686 260.664 55.166666666666686 258 55.166666666666686 C 255.336 55.166666666666686 255.336 51.166666666666686 258 51.166666666666686 Z"></path><path fill="#50B432" d="M 286 157.5 C 288.664 157.5 288.664 161.5 286 161.5 C 283.336 161.5 283.336 157.5 286 157.5 Z"></path><path fill="#50B432" d="M 177 263.8333333333333 C 179.664 263.8333333333333 179.664 267.8333333333333 177 267.8333333333333 C 174.336 267.8333333333333 174.336 263.8333333333333 177 263.8333333333333 Z"></path><path fill="#50B432" d="M 156 77.75 C 158.664 77.75 158.664 81.75 156 81.75 C 153.336 81.75 153.336 77.75 156 77.75 Z"></path><path fill="#50B432" d="M 183 263.8333333333333 C 185.664 263.8333333333333 185.664 267.8333333333333 183 267.8333333333333 C 180.336 267.8333333333333 180.336 263.8333333333333 183 263.8333333333333 Z"></path><path fill="#50B432" d="M 286 77.75 C 288.664 77.75 288.664 81.75 286 81.75 C 283.336 81.75 283.336 77.75 286 77.75 Z"></path><path fill="#50B432" d="M 313 263.8333333333333 C 315.664 263.8333333333333 315.664 267.8333333333333 313 267.8333333333333 C 310.336 267.8333333333333 310.336 263.8333333333333 313 263.8333333333333 Z"></path><path fill="#50B432" d="M 415 130.91666666666669 C 417.664 130.91666666666669 417.664 134.91666666666669 415 134.91666666666669 C 412.336 134.91666666666669 412.336 130.91666666666669 415 130.91666666666669 Z"></path><path fill="#50B432" d="M 483 51.166666666666686 C 485.664 51.166666666666686 485.664 55.166666666666686 483 55.166666666666686 C 480.336 55.166666666666686 480.336 51.166666666666686 483 51.166666666666686 Z"></path><path fill="#50B432" d="M 129 130.91666666666669 C 131.664 130.91666666666669 131.664 134.91666666666669 129 134.91666666666669 C 126.336 134.91666666666669 126.336 130.91666666666669 129 130.91666666666669 Z"></path><path fill="#50B432" d="M 449 157.5 C 451.664 157.5 451.664 161.5 449 161.5 C 446.336 161.5 446.336 157.5 449 157.5 Z"></path><path fill="#50B432" d="M 422 263.8333333333333 C 424.664 263.8333333333333 424.664 267.8333333333333 422 267.8333333333333 C 419.336 267.8333333333333 419.336 263.8333333333333 422 263.8333333333333 Z"></path><path fill="#50B432" d="M 401 24.58333333333337 C 403.664 24.58333333333337 403.664 28.58333333333337 401 28.58333333333337 C 398.336 28.58333333333337 398.336 24.58333333333337 401 24.58333333333337 Z"></path><path fill="#50B432" d="M 211 24.58333333333337 C 213.664 24.58333333333337 213.664 28.58333333333337 211 28.58333333333337 C 208.336 28.58333333333337 208.336 24.58333333333337 211 24.58333333333337 Z"></path><path fill="#50B432" d="M 68 104.33333333333334 C 70.664 104.33333333333334 70.664 108.33333333333334 68 108.33333333333334 C 65.336 108.33333333333334 65.336 104.33333333333334 68 104.33333333333334 Z"></path><path fill="#50B432" d="M 286 184.08333333333334 C 288.664 184.08333333333334 288.664 188.08333333333334 286 188.08333333333334 C 283.336 188.08333333333334 283.336 184.08333333333334 286 184.08333333333334 Z"></path><path fill="#50B432" d="M 463 263.8333333333333 C 465.664 263.8333333333333 465.664 267.8333333333333 463 267.8333333333333 C 460.336 267.8333333333333 460.336 263.8333333333333 463 263.8333333333333 Z"></path><path fill="#50B432" d="M 231 210.66666666666669 C 233.664 210.66666666666669 233.664 214.66666666666669 231 214.66666666666669 C 228.336 214.66666666666669 228.336 210.66666666666669 231 210.66666666666669 Z"></path><path fill="#50B432" d="M 156 77.75 C 158.664 77.75 158.664 81.75 156 81.75 C 153.336 81.75 153.336 77.75 156 77.75 Z"></path><path fill="#50B432" d="M 231 263.8333333333333 C 233.664 263.8333333333333 233.664 267.8333333333333 231 267.8333333333333 C 228.336 267.8333333333333 228.336 263.8333333333333 231 263.8333333333333 Z"></path><path fill="#50B432" d="M 463 24.58333333333337 C 465.664 24.58333333333337 465.664 28.58333333333337 463 28.58333333333337 C 460.336 28.58333333333337 460.336 24.58333333333337 463 24.58333333333337 Z"></path><path fill="#50B432" d="M 286 104.33333333333334 C 288.664 104.33333333333334 288.664 108.33333333333334 286 108.33333333333334 C 283.336 108.33333333333334 283.336 104.33333333333334 286 104.33333333333334 Z"></path><path fill="#50B432" d="M 231 210.66666666666669 C 233.664 210.66666666666669 233.664 214.66666666666669 231 214.66666666666669 C 228.336 214.66666666666669 228.336 210.66666666666669 231 210.66666666666669 Z"></path><path fill="#50B432" d="M 68 237.25 C 70.664 237.25 70.664 241.25 68 241.25 C 65.336 241.25 65.336 237.25 68 237.25 Z"></path><path fill="#50B432" d="M 470 24.58333333333337 C 472.664 24.58333333333337 472.664 28.58333333333337 470 28.58333333333337 C 467.336 28.58333333333337 467.336 24.58333333333337 470 24.58333333333337 Z"></path><path fill="#50B432" d="M 340 210.66666666666669 C 342.664 210.66666666666669 342.664 214.66666666666669 340 214.66666666666669 C 337.336 214.66666666666669 337.336 210.66666666666669 340 210.66666666666669 Z"></path><path fill="#50B432" d="M 292 263.8333333333333 C 294.664 263.8333333333333 294.664 267.8333333333333 292 267.8333333333333 C 289.336 267.8333333333333 289.336 263.8333333333333 292 263.8333333333333 Z"></path><path fill="#50B432" d="M 470 157.5 C 472.664 157.5 472.664 161.5 470 161.5 C 467.336 161.5 467.336 157.5 470 157.5 Z"></path><path fill="#50B432" d="M 483 157.5 C 485.664 157.5 485.664 161.5 483 161.5 C 480.336 161.5 480.336 157.5 483 157.5 Z"></path><path fill="#50B432" d="M 286 210.66666666666669 C 288.664 210.66666666666669 288.664 214.66666666666669 286 214.66666666666669 C 283.336 214.66666666666669 283.336 210.66666666666669 286 210.66666666666669 Z"></path><path fill="#50B432" d="M 449 130.91666666666669 C 451.664 130.91666666666669 451.664 134.91666666666669 449 134.91666666666669 C 446.336 134.91666666666669 446.336 130.91666666666669 449 130.91666666666669 Z"></path><path fill="#50B432" d="M 149 130.91666666666669 C 151.664 130.91666666666669 151.664 134.91666666666669 149 134.91666666666669 C 146.336 134.91666666666669 146.336 130.91666666666669 149 130.91666666666669 Z"></path><path fill="#50B432" d="M 204 24.58333333333337 C 206.664 24.58333333333337 206.664 28.58333333333337 204 28.58333333333337 C 201.336 28.58333333333337 201.336 24.58333333333337 204 24.58333333333337 Z"></path><path fill="#50B432" d="M 211 51.166666666666686 C 213.664 51.166666666666686 213.664 55.166666666666686 211 55.166666666666686 C 208.336 55.166666666666686 208.336 51.166666666666686 211 51.166666666666686 Z"></path><path fill="#50B432" d="M 292 263.8333333333333 C 294.664 263.8333333333333 294.664 267.8333333333333 292 267.8333333333333 C 289.336 267.8333333333333 289.336 263.8333333333333 292 263.8333333333333 Z"></path><path fill="#50B432" d="M 122 263.8333333333333 C 124.664 263.8333333333333 124.664 267.8333333333333 122 267.8333333333333 C 119.336 267.8333333333333 119.336 263.8333333333333 122 263.8333333333333 Z"></path><path fill="#50B432" d="M 422 104.33333333333334 C 424.664 104.33333333333334 424.664 108.33333333333334 422 108.33333333333334 C 419.336 108.33333333333334 419.336 104.33333333333334 422 104.33333333333334 Z"></path><path fill="#50B432" d="M 183 263.8333333333333 C 185.664 263.8333333333333 185.664 267.8333333333333 183 267.8333333333333 C 180.336 267.8333333333333 180.336 263.8333333333333 183 263.8333333333333 Z"></path><path fill="#50B432" d="M 449 210.66666666666669 C 451.664 210.66666666666669 451.664 214.66666666666669 449 214.66666666666669 C 446.336 214.66666666666669 446.336 210.66666666666669 449 210.66666666666669 Z"></path><path fill="#50B432" d="M 456 263.8333333333333 C 458.664 263.8333333333333 458.664 267.8333333333333 456 267.8333333333333 C 453.336 267.8333333333333 453.336 263.8333333333333 456 263.8333333333333 Z"></path><path fill="#50B432" d="M 401 184.08333333333334 C 403.664 184.08333333333334 403.664 188.08333333333334 401 188.08333333333334 C 398.336 188.08333333333334 398.336 184.08333333333334 401 184.08333333333334 Z"></path><path fill="#50B432" d="M 395 24.58333333333337 C 397.664 24.58333333333337 397.664 28.58333333333337 395 28.58333333333337 C 392.336 28.58333333333337 392.336 24.58333333333337 395 24.58333333333337 Z"></path><path fill="#50B432" d="M 401 263.8333333333333 C 403.664 263.8333333333333 403.664 267.8333333333333 401 267.8333333333333 C 398.336 267.8333333333333 398.336 263.8333333333333 401 263.8333333333333 Z"></path><path fill="#50B432" d="M 347 263.8333333333333 C 349.664 263.8333333333333 349.664 267.8333333333333 347 267.8333333333333 C 344.336 267.8333333333333 344.336 263.8333333333333 347 263.8333333333333 Z"></path><path fill="#50B432" d="M 231 51.166666666666686 C 233.664 51.166666666666686 233.664 55.166666666666686 231 55.166666666666686 C 228.336 55.166666666666686 228.336 51.166666666666686 231 51.166666666666686 Z"></path><path fill="#50B432" d="M 258 237.25 C 260.664 237.25 260.664 241.25 258 241.25 C 255.336 241.25 255.336 237.25 258 237.25 Z"></path><path fill="#50B432" d="M 68 130.91666666666669 C 70.664 130.91666666666669 70.664 134.91666666666669 68 134.91666666666669 C 65.336 134.91666666666669 65.336 130.91666666666669 68 130.91666666666669 Z"></path><path fill="#50B432" d="M 88 24.58333333333337 C 90.664 24.58333333333337 90.664 28.58333333333337 88 28.58333333333337 C 85.336 28.58333333333337 85.336 24.58333333333337 88 24.58333333333337 Z"></path><path fill="#50B432" d="M 354 263.8333333333333 C 356.664 263.8333333333333 356.664 267.8333333333333 354 267.8333333333333 C 351.336 267.8333333333333 351.336 263.8333333333333 354 263.8333333333333 Z"></path><path fill="#50B432" d="M 136 24.58333333333337 C 138.664 24.58333333333337 138.664 28.58333333333337 136 28.58333333333337 C 133.336 28.58333333333337 133.336 24.58333333333337 136 24.58333333333337 Z"></path><path fill="#50B432" d="M 122 24.58333333333337 C 124.664 24.58333333333337 124.664 28.58333333333337 122 28.58333333333337 C 119.336 28.58333333333337 119.336 24.58333333333337 122 24.58333333333337 Z"></path><path fill="#50B432" d="M 483 184.08333333333334 C 485.664 184.08333333333334 485.664 188.08333333333334 483 188.08333333333334 C 480.336 188.08333333333334 480.336 184.08333333333334 483 184.08333333333334 Z"></path><path fill="#50B432" d="M 136 24.58333333333337 C 138.664 24.58333333333337 138.664 28.58333333333337 136 28.58333333333337 C 133.336 28.58333333333337 133.336 24.58333333333337 136 24.58333333333337 Z"></path><path fill="#50B432" d="M 367 51.166666666666686 C 369.664 51.166666666666686 369.664 55.166666666666686 367 55.166666666666686 C 364.336 55.166666666666686 364.336 51.166666666666686 367 51.166666666666686 Z"></path><path fill="#50B432" d="M 367 237.25 C 369.664 237.25 369.664 241.25 367 241.25 C 364.336 241.25 364.336 237.25 367 237.25 Z"></path><path fill="#50B432" d="M 68 263.8333333333333 C 70.664 263.8333333333333 70.664 267.8333333333333 68 267.8333333333333 C 65.336 267.8333333333333 65.336 263.8333333333333 68 263.8333333333333 Z"></path><path fill="#50B432" d="M 136 130.91666666666669 C 138.664 130.91666666666669 138.664 134.91666666666669 136 134.91666666666669 C 133.336 134.91666666666669 133.336 130.91666666666669 136 130.91666666666669 Z"></path><path fill="#50B432" d="M 231 263.8333333333333 C 233.664 263.8333333333333 233.664 267.8333333333333 231 267.8333333333333 C 228.336 267.8333333333333 228.336 263.8333333333333 231 263.8333333333333 Z"></path><path fill="#50B432" d="M 470 263.8333333333333 C 472.664 263.8333333333333 472.664 267.8333333333333 470 267.8333333333333 C 467.336 267.8333333333333 467.336 263.8333333333333 470 263.8333333333333 Z"></path><path fill="#50B432" d="M 286 24.58333333333337 C 288.664 24.58333333333337 288.664 28.58333333333337 286 28.58333333333337 C 283.336 28.58333333333337 283.336 24.58333333333337 286 24.58333333333337 Z"></path><path fill="#50B432" d="M 463 24.58333333333337 C 465.664 24.58333333333337 465.664 28.58333333333337 463 28.58333333333337 C 460.336 28.58333333333337 460.336 24.58333333333337 463 24.58333333333337 Z"></path><path fill="#50B432" d="M 122 263.8333333333333 C 124.664 263.8333333333333 124.664 267.8333333333333 122 267.8333333333333 C 119.336 267.8333333333333 119.336 263.8333333333333 122 263.8333333333333 Z"></path><path fill="#50B432" d="M 74 24.58333333333337 C 76.664 24.58333333333337 76.664 28.58333333333337 74 28.58333333333337 C 71.336 28.58333333333337 71.336 24.58333333333337 74 24.58333333333337 Z"></path><path fill="#50B432" d="M 245 184.08333333333334 C 247.664 184.08333333333334 247.664 188.08333333333334 245 188.08333333333334 C 242.336 188.08333333333334 242.336 184.08333333333334 245 184.08333333333334 Z"></path><path fill="#50B432" d="M 143 24.58333333333337 C 145.664 24.58333333333337 145.664 28.58333333333337 143 28.58333333333337 C 140.336 28.58333333333337 140.336 24.58333333333337 143 24.58333333333337 Z"></path><path fill="#50B432" d="M 183 263.8333333333333 C 185.664 263.8333333333333 185.664 267.8333333333333 183 267.8333333333333 C 180.336 267.8333333333333 180.336 263.8333333333333 183 263.8333333333333 Z"></path><path fill="#50B432" d="M 367 51.166666666666686 C 369.664 51.166666666666686 369.664 55.166666666666686 367 55.166666666666686 C 364.336 55.166666666666686 364.336 51.166666666666686 367 51.166666666666686 Z"></path><path fill="#50B432" d="M 204 24.58333333333337 C 206.664 24.58333333333337 206.664 28.58333333333337 204 28.58333333333337 C 201.336 28.58333333333337 201.336 24.58333333333337 204 24.58333333333337 Z"></path><path fill="#50B432" d="M 449 104.33333333333334 C 451.664 104.33333333333334 451.664 108.33333333333334 449 108.33333333333334 C 446.336 108.33333333333334 446.336 104.33333333333334 449 104.33333333333334 Z"></path><path fill="#50B432" d="M 156 104.33333333333334 C 158.664 104.33333333333334 158.664 108.33333333333334 156 108.33333333333334 C 153.336 108.33333333333334 153.336 104.33333333333334 156 104.33333333333334 Z"></path><path fill="#50B432" d="M 449 51.166666666666686 C 451.664 51.166666666666686 451.664 55.166666666666686 449 55.166666666666686 C 446.336 55.166666666666686 446.336 51.166666666666686 449 51.166666666666686 Z"></path><path fill="#50B432" d="M 149 130.91666666666669 C 151.664 130.91666666666669 151.664 134.91666666666669 149 134.91666666666669 C 146.336 134.91666666666669 146.336 130.91666666666669 149 130.91666666666669 Z"></path><path fill="#50B432" d="M 395 210.66666666666669 C 397.664 210.66666666666669 397.664 214.66666666666669 395 214.66666666666669 C 392.336 214.66666666666669 392.336 210.66666666666669 395 210.66666666666669 Z"></path><path fill="#50B432" d="M 286 210.66666666666669 C 288.664 210.66666666666669 288.664 214.66666666666669 286 214.66666666666669 C 283.336 214.66666666666669 283.336 210.66666666666669 286 210.66666666666669 Z"></path><path fill="#50B432" d="M 286 263.8333333333333 C 288.664 263.8333333333333 288.664 267.8333333333333 286 267.8333333333333 C 283.336 267.8333333333333 283.336 263.8333333333333 286 263.8333333333333 Z"></path><path fill="#50B432" d="M 211 77.75 C 213.664 77.75 213.664 81.75 211 81.75 C 208.336 81.75 208.336 77.75 211 77.75 Z"></path><path fill="#50B432" d="M 476 24.58333333333337 C 478.664 24.58333333333337 478.664 28.58333333333337 476 28.58333333333337 C 473.336 28.58333333333337 473.336 24.58333333333337 476 24.58333333333337 Z"></path><path fill="#50B432" d="M 177 237.25 C 179.664 237.25 179.664 241.25 177 241.25 C 174.336 241.25 174.336 237.25 177 237.25 Z"></path><path fill="#50B432" d="M 122 104.33333333333334 C 124.664 104.33333333333334 124.664 108.33333333333334 122 108.33333333333334 C 119.336 108.33333333333334 119.336 104.33333333333334 122 104.33333333333334 Z"></path><path fill="#50B432" d="M 129 24.58333333333337 C 131.664 24.58333333333337 131.664 28.58333333333337 129 28.58333333333337 C 126.336 28.58333333333337 126.336 24.58333333333337 129 24.58333333333337 Z"></path><path fill="#50B432" d="M 211 263.8333333333333 C 213.664 263.8333333333333 213.664 267.8333333333333 211 267.8333333333333 C 208.336 267.8333333333333 208.336 263.8333333333333 211 263.8333333333333 Z"></path><path fill="#50B432" d="M 177 210.66666666666669 C 179.664 210.66666666666669 179.664 214.66666666666669 177 214.66666666666669 C 174.336 214.66666666666669 174.336 210.66666666666669 177 210.66666666666669 Z"></path><path fill="#50B432" d="M 136 130.91666666666669 C 138.664 130.91666666666669 138.664 134.91666666666669 136 134.91666666666669 C 133.336 134.91666666666669 133.336 130.91666666666669 136 130.91666666666669 Z"></path><path fill="#50B432" d="M 456 263.8333333333333 C 458.664 263.8333333333333 458.664 267.8333333333333 456 267.8333333333333 C 453.336 267.8333333333333 453.336 263.8333333333333 456 263.8333333333333 Z"></path><path fill="#50B432" d="M 429 77.75 C 431.664 77.75 431.664 81.75 429 81.75 C 426.336 81.75 426.336 77.75 429 77.75 Z"></path><path fill="#50B432" d="M 81 130.91666666666669 C 83.664 130.91666666666669 83.664 134.91666666666669 81 134.91666666666669 C 78.336 134.91666666666669 78.336 130.91666666666669 81 130.91666666666669 Z"></path><path fill="#50B432" d="M 483 210.66666666666669 C 485.664 210.66666666666669 485.664 214.66666666666669 483 214.66666666666669 C 480.336 214.66666666666669 480.336 210.66666666666669 483 210.66666666666669 Z"></path><path fill="#50B432" d="M 190 263.8333333333333 C 192.664 263.8333333333333 192.664 267.8333333333333 190 267.8333333333333 C 187.336 267.8333333333333 187.336 263.8333333333333 190 263.8333333333333 Z"></path><path fill="#50B432" d="M 449 237.25 C 451.664 237.25 451.664 241.25 449 241.25 C 446.336 241.25 446.336 237.25 449 237.25 Z"></path><path fill="#50B432" d="M 122 77.75 C 124.664 77.75 124.664 81.75 122 81.75 C 119.336 81.75 119.336 77.75 122 77.75 Z"></path><path fill="#50B432" d="M 367 157.5 C 369.664 157.5 369.664 161.5 367 161.5 C 364.336 161.5 364.336 157.5 367 157.5 Z"></path><path fill="#50B432" d="M 483 51.166666666666686 C 485.664 51.166666666666686 485.664 55.166666666666686 483 55.166666666666686 C 480.336 55.166666666666686 480.336 51.166666666666686 483 51.166666666666686 Z"></path><path fill="#50B432" d="M 429 51.166666666666686 C 431.664 51.166666666666686 431.664 55.166666666666686 429 55.166666666666686 C 426.336 55.166666666666686 426.336 51.166666666666686 429 51.166666666666686 Z"></path><path fill="#50B432" d="M 422 104.33333333333334 C 424.664 104.33333333333334 424.664 108.33333333333334 422 108.33333333333334 C 419.336 108.33333333333334 419.336 104.33333333333334 422 104.33333333333334 Z"></path><path fill="#50B432" d="M 231 184.08333333333334 C 233.664 184.08333333333334 233.664 188.08333333333334 231 188.08333333333334 C 228.336 188.08333333333334 228.336 184.08333333333334 231 184.08333333333334 Z"></path><path fill="#50B432" d="M 231 157.5 C 233.664 157.5 233.664 161.5 231 161.5 C 228.336 161.5 228.336 157.5 231 157.5 Z"></path><path fill="#50B432" d="M 306 263.8333333333333 C 308.664 263.8333333333333 308.664 267.8333333333333 306 267.8333333333333 C 303.336 267.8333333333333 303.336 263.8333333333333 306 263.8333333333333 Z"></path><path fill="#50B432" d="M 238 157.5 C 240.664 157.5 240.664 161.5 238 161.5 C 235.336 161.5 235.336 157.5 238 157.5 Z"></path><path fill="#50B432" d="M 204 104.33333333333334 C 206.664 104.33333333333334 206.664 108.33333333333334 204 108.33333333333334 C 201.336 108.33333333333334 201.336 104.33333333333334 204 104.33333333333334 Z"></path><path fill="#50B432" d="M 476 237.25 C 478.664 237.25 478.664 241.25 476 241.25 C 473.336 241.25 473.336 237.25 476 237.25 Z"></path><path fill="#50B432" d="M 122 77.75 C 124.664 77.75 124.664 81.75 122 81.75 C 119.336 81.75 119.336 77.75 122 77.75 Z"></path><path fill="#50B432" d="M 68 263.8333333333333 C 70.664 263.8333333333333 70.664 267.8333333333333 68 267.8333333333333 C 65.336 267.8333333333333 65.336 263.8333333333333 68 263.8333333333333 Z"></path><path fill="#50B432" d="M 476 237.25 C 478.664 237.25 478.664 241.25 476 241.25 C 473.336 241.25 473.336 237.25 476 237.25 Z"></path><path fill="#50B432" d="M 463 24.58333333333337 C 465.664 24.58333333333337 465.664 28.58333333333337 463 28.58333333333337 C 460.336 28.58333333333337 460.336 24.58333333333337 463 24.58333333333337 Z"></path><path fill="#50B432" d="M 476 157.5 C 478.664 157.5 478.664 161.5 476 161.5 C 473.336 161.5 473.336 157.5 476 157.5 Z"></path><path fill="#50B432" d="M 449 237.25 C 451.664 237.25 451.664 241.25 449 241.25 C 446.336 241.25 446.336 237.25 449 237.25 Z"></path><path fill="#50B432" d="M 88 130.91666666666669 C 90.664 130.91666666666669 90.664 134.91666666666669 88 134.91666666666669 C 85.336 134.91666666666669 85.336 130.91666666666669 88 130.91666666666669 Z"></path><path fill="#50B432" d="M 476 157.5 C 478.664 157.5 478.664 161.5 476 161.5 C 473.336 161.5 473.336 157.5 476 157.5 Z"></path><path fill="#50B432" d="M 449 77.75 C 451.664 77.75 451.664 81.75 449 81.75 C 446.336 81.75 446.336 77.75 449 77.75 Z"></path><path fill="#50B432" d="M 286 51.166666666666686 C 288.664 51.166666666666686 288.664 55.166666666666686 286 55.166666666666686 C 283.336 55.166666666666686 283.336 51.166666666666686 286 51.166666666666686 Z"></path><path fill="#50B432" d="M 449 210.66666666666669 C 451.664 210.66666666666669 451.664 214.66666666666669 449 214.66666666666669 C 446.336 214.66666666666669 446.336 210.66666666666669 449 210.66666666666669 Z"></path><path fill="#50B432" d="M 286 130.91666666666669 C 288.664 130.91666666666669 288.664 134.91666666666669 286 134.91666666666669 C 283.336 134.91666666666669 283.336 130.91666666666669 286 130.91666666666669 Z"></path><path fill="#50B432" d="M 449 51.166666666666686 C 451.664 51.166666666666686 451.664 55.166666666666686 449 55.166666666666686 C 446.336 55.166666666666686 446.336 51.166666666666686 449 51.166666666666686 Z"></path><path fill="#50B432" d="M 361 24.58333333333337 C 363.664 24.58333333333337 363.664 28.58333333333337 361 28.58333333333337 C 358.336 28.58333333333337 358.336 24.58333333333337 361 24.58333333333337 Z"></path><path fill="#50B432" d="M 122 184.08333333333334 C 124.664 184.08333333333334 124.664 188.08333333333334 122 188.08333333333334 C 119.336 188.08333333333334 119.336 184.08333333333334 122 184.08333333333334 Z"></path><path fill="#50B432" d="M 129 24.58333333333337 C 131.664 24.58333333333337 131.664 28.58333333333337 129 28.58333333333337 C 126.336 28.58333333333337 126.336 24.58333333333337 129 24.58333333333337 Z"></path><path fill="#50B432" d="M 415 130.91666666666669 C 417.664 130.91666666666669 417.664 134.91666666666669 415 134.91666666666669 C 412.336 134.91666666666669 412.336 130.91666666666669 415 130.91666666666669 Z"></path><path fill="#50B432" d="M 122 157.5 C 124.664 157.5 124.664 161.5 122 161.5 C 119.336 161.5 119.336 157.5 122 157.5 Z"></path><path fill="#50B432" d="M 88 24.58333333333337 C 90.664 24.58333333333337 90.664 28.58333333333337 88 28.58333333333337 C 85.336 28.58333333333337 85.336 24.58333333333337 88 24.58333333333337 Z"></path><path fill="#50B432" d="M 190 24.58333333333337 C 192.664 24.58333333333337 192.664 28.58333333333337 190 28.58333333333337 C 187.336 28.58333333333337 187.336 24.58333333333337 190 24.58333333333337 Z"></path><path fill="#50B432" d="M 463 263.8333333333333 C 465.664 263.8333333333333 465.664 267.8333333333333 463 267.8333333333333 C 460.336 267.8333333333333 460.336 263.8333333333333 463 263.8333333333333 Z"></path><path fill="#50B432" d="M 395 263.8333333333333 C 397.664 263.8333333333333 397.664 267.8333333333333 395 267.8333333333333 C 392.336 267.8333333333333 392.336 263.8333333333333 395 263.8333333333333 Z"></path><path fill="#50B432" d="M 449 130.91666666666669 C 451.664 130.91666666666669 451.664 134.91666666666669 449 134.91666666666669 C 446.336 134.91666666666669 446.336 130.91666666666669 449 130.91666666666669 Z"></path><path fill="#50B432" d="M 401 184.08333333333334 C 403.664 184.08333333333334 403.664 188.08333333333334 401 188.08333333333334 C 398.336 188.08333333333334 398.336 184.08333333333334 401 184.08333333333334 Z"></path><path fill="#50B432" d="M 177 24.58333333333337 C 179.664 24.58333333333337 179.664 28.58333333333337 177 28.58333333333337 C 174.336 28.58333333333337 174.336 24.58333333333337 177 24.58333333333337 Z"></path><path fill="#50B432" d="M 449 210.66666666666669 C 451.664 210.66666666666669 451.664 214.66666666666669 449 214.66666666666669 C 446.336 214.66666666666669 446.336 210.66666666666669 449 210.66666666666669 Z"></path><path fill="#50B432" d="M 245 104.33333333333334 C 247.664 104.33333333333334 247.664 108.33333333333334 245 108.33333333333334 C 242.336 108.33333333333334 242.336 104.33333333333334 245 104.33333333333334 Z"></path><path fill="#50B432" d="M 88 130.91666666666669 C 90.664 130.91666666666669 90.664 134.91666666666669 88 134.91666666666669 C 85.336 134.91666666666669 85.336 130.91666666666669 88 130.91666666666669 Z"></path><path fill="#50B432" d="M 354 263.8333333333333 C 356.664 263.8333333333333 356.664 267.8333333333333 354 267.8333333333333 C 351.336 267.8333333333333 351.336 263.8333333333333 354 263.8333333333333 Z"></path><path fill="#50B432" d="M 231 104.33333333333334 C 233.664 104.33333333333334 233.664 108.33333333333334 231 108.33333333333334 C 228.336 108.33333333333334 228.336 104.33333333333334 231 104.33333333333334 Z"></path><path fill="#50B432" d="M 143 24.58333333333337 C 145.664 24.58333333333337 145.664 28.58333333333337 143 28.58333333333337 C 140.336 28.58333333333337 140.336 24.58333333333337 143 24.58333333333337 Z"></path><path fill="#50B432" d="M 258 51.166666666666686 C 260.664 51.166666666666686 260.664 55.166666666666686 258 55.166666666666686 C 255.336 55.166666666666686 255.336 51.166666666666686 258 51.166666666666686 Z"></path><path fill="#50B432" d="M 286 157.5 C 288.664 157.5 288.664 161.5 286 161.5 C 283.336 161.5 283.336 157.5 286 157.5 Z"></path><path fill="#50B432" d="M 483 263.8333333333333 C 485.664 263.8333333333333 485.664 267.8333333333333 483 267.8333333333333 C 480.336 267.8333333333333 480.336 263.8333333333333 483 263.8333333333333 Z"></path><path fill="#50B432" d="M 340 210.66666666666669 C 342.664 210.66666666666669 342.664 214.66666666666669 340 214.66666666666669 C 337.336 214.66666666666669 337.336 210.66666666666669 340 210.66666666666669 Z"></path><path fill="#50B432" d="M 463 263.8333333333333 C 465.664 263.8333333333333 465.664 267.8333333333333 463 267.8333333333333 C 460.336 267.8333333333333 460.336 263.8333333333333 463 263.8333333333333 Z"></path><path fill="#50B432" d="M 361 263.8333333333333 C 363.664 263.8333333333333 363.664 267.8333333333333 361 267.8333333333333 C 358.336 267.8333333333333 358.336 263.8333333333333 361 263.8333333333333 Z"></path><path fill="#50B432" d="M 347 263.8333333333333 C 349.664 263.8333333333333 349.664 267.8333333333333 347 267.8333333333333 C 344.336 267.8333333333333 344.336 263.8333333333333 347 263.8333333333333 Z"></path><path fill="#50B432" d="M 367 184.08333333333334 C 369.664 184.08333333333334 369.664 188.08333333333334 367 188.08333333333334 C 364.336 188.08333333333334 364.336 184.08333333333334 367 184.08333333333334 Z"></path><path fill="#50B432" d="M 156 51.166666666666686 C 158.664 51.166666666666686 158.664 55.166666666666686 156 55.166666666666686 C 153.336 55.166666666666686 153.336 51.166666666666686 156 51.166666666666686 Z"></path><path fill="#50B432" d="M 449 130.91666666666669 C 451.664 130.91666666666669 451.664 134.91666666666669 449 134.91666666666669 C 446.336 134.91666666666669 446.336 130.91666666666669 449 130.91666666666669 Z"></path><path fill="#50B432" d="M 367 237.25 C 369.664 237.25 369.664 241.25 367 241.25 C 364.336 241.25 364.336 237.25 367 237.25 Z"></path><path fill="#50B432" d="M 470 157.5 C 472.664 157.5 472.664 161.5 470 161.5 C 467.336 161.5 467.336 157.5 470 157.5 Z"></path><path fill="#50B432" d="M 197 263.8333333333333 C 199.664 263.8333333333333 199.664 267.8333333333333 197 267.8333333333333 C 194.336 267.8333333333333 194.336 263.8333333333333 197 263.8333333333333 Z"></path><path fill="#50B432" d="M 68 210.66666666666669 C 70.664 210.66666666666669 70.664 214.66666666666669 68 214.66666666666669 C 65.336 214.66666666666669 65.336 210.66666666666669 68 210.66666666666669 Z"></path><path fill="#50B432" d="M 122 51.166666666666686 C 124.664 51.166666666666686 124.664 55.166666666666686 122 55.166666666666686 C 119.336 55.166666666666686 119.336 51.166666666666686 122 51.166666666666686 Z"></path><path fill="#50B432" d="M 422 24.58333333333337 C 424.664 24.58333333333337 424.664 28.58333333333337 422 28.58333333333337 C 419.336 28.58333333333337 419.336 24.58333333333337 422 24.58333333333337 Z"></path><path fill="#50B432" d="M 143 130.91666666666669 C 145.664 130.91666666666669 145.664 134.91666666666669 143 134.91666666666669 C 140.336 134.91666666666669 140.336 130.91666666666669 143 130.91666666666669 Z"></path><path fill="#50B432" d="M 408 24.58333333333337 C 410.664 24.58333333333337 410.664 28.58333333333337 408 28.58333333333337 C 405.336 28.58333333333337 405.336 24.58333333333337 408 24.58333333333337 Z"></path><path fill="#50B432" d="M 395 210.66666666666669 C 397.664 210.66666666666669 397.664 214.66666666666669 395 214.66666666666669 C 392.336 214.66666666666669 392.336 210.66666666666669 395 210.66666666666669 Z"></path><path fill="#50B432" d="M 286 210.66666666666669 C 288.664 210.66666666666669 288.664 214.66666666666669 286 214.66666666666669 C 283.336 214.66666666666669 283.336 210.66666666666669 286 210.66666666666669 Z"></path><path fill="#50B432" d="M 286 237.25 C 288.664 237.25 288.664 241.25 286 241.25 C 283.336 241.25 283.336 237.25 286 237.25 Z"></path><path fill="#50B432" d="M 81 24.58333333333337 C 83.664 24.58333333333337 83.664 28.58333333333337 81 28.58333333333337 C 78.336 28.58333333333337 78.336 24.58333333333337 81 24.58333333333337 Z"></path><path fill="#50B432" d="M 429 51.166666666666686 C 431.664 51.166666666666686 431.664 55.166666666666686 429 55.166666666666686 C 426.336 55.166666666666686 426.336 51.166666666666686 429 51.166666666666686 Z"></path><path fill="#50B432" d="M 204 104.33333333333334 C 206.664 104.33333333333334 206.664 108.33333333333334 204 108.33333333333334 C 201.336 108.33333333333334 201.336 104.33333333333334 204 104.33333333333334 Z"></path><path fill="#50B432" d="M 211 24.58333333333337 C 213.664 24.58333333333337 213.664 28.58333333333337 211 28.58333333333337 C 208.336 28.58333333333337 208.336 24.58333333333337 211 24.58333333333337 Z"></path><path fill="#50B432" d="M 190 157.5 C 192.664 157.5 192.664 161.5 190 161.5 C 187.336 161.5 187.336 157.5 190 157.5 Z"></path><path fill="#50B432" d="M 68 24.58333333333337 C 70.664 24.58333333333337 70.664 28.58333333333337 68 28.58333333333337 C 65.336 28.58333333333337 65.336 24.58333333333337 68 24.58333333333337 Z"></path><path fill="#50B432" d="M 367 184.08333333333334 C 369.664 184.08333333333334 369.664 188.08333333333334 367 188.08333333333334 C 364.336 188.08333333333334 364.336 184.08333333333334 367 184.08333333333334 Z"></path><path fill="#50B432" d="M 415 263.8333333333333 C 417.664 263.8333333333333 417.664 267.8333333333333 415 267.8333333333333 C 412.336 267.8333333333333 412.336 263.8333333333333 415 263.8333333333333 Z"></path><path fill="#50B432" d="M 374 24.58333333333337 C 376.664 24.58333333333337 376.664 28.58333333333337 374 28.58333333333337 C 371.336 28.58333333333337 371.336 24.58333333333337 374 24.58333333333337 Z"></path><path fill="#50B432" d="M 292 263.8333333333333 C 294.664 263.8333333333333 294.664 267.8333333333333 292 267.8333333333333 C 289.336 267.8333333333333 289.336 263.8333333333333 292 263.8333333333333 Z"></path><path fill="#50B432" d="M 320 263.8333333333333 C 322.664 263.8333333333333 322.664 267.8333333333333 320 267.8333333333333 C 317.336 267.8333333333333 317.336 263.8333333333333 320 263.8333333333333 Z"></path><path fill="#50B432" d="M 149 130.91666666666669 C 151.664 130.91666666666669 151.664 134.91666666666669 149 134.91666666666669 C 146.336 134.91666666666669 146.336 130.91666666666669 149 130.91666666666669 Z"></path><path fill="#50B432" d="M 68 104.33333333333334 C 70.664 104.33333333333334 70.664 108.33333333333334 68 108.33333333333334 C 65.336 108.33333333333334 65.336 104.33333333333334 68 104.33333333333334 Z"></path><path fill="#50B432" d="M 231 77.75 C 233.664 77.75 233.664 81.75 231 81.75 C 228.336 81.75 228.336 77.75 231 77.75 Z"></path><path fill="#50B432" d="M 422 263.8333333333333 C 424.664 263.8333333333333 424.664 267.8333333333333 422 267.8333333333333 C 419.336 267.8333333333333 419.336 263.8333333333333 422 263.8333333333333 Z"></path><path fill="#50B432" d="M 299 263.8333333333333 C 301.664 263.8333333333333 301.664 267.8333333333333 299 267.8333333333333 C 296.336 267.8333333333333 296.336 263.8333333333333 299 263.8333333333333 Z"></path><path fill="#50B432" d="M 197 130.91666666666669 C 199.664 130.91666666666669 199.664 134.91666666666669 197 134.91666666666669 C 194.336 134.91666666666669 194.336 130.91666666666669 197 130.91666666666669 Z"></path><path fill="#50B432" d="M 197 24.58333333333337 C 199.664 24.58333333333337 199.664 28.58333333333337 197 28.58333333333337 C 194.336 28.58333333333337 194.336 24.58333333333337 197 24.58333333333337 Z"></path><path fill="#50B432" d="M 456 24.58333333333337 C 458.664 24.58333333333337 458.664 28.58333333333337 456 28.58333333333337 C 453.336 28.58333333333337 453.336 24.58333333333337 456 24.58333333333337 Z"></path><path fill="#50B432" d="M 313 263.8333333333333 C 315.664 263.8333333333333 315.664 267.8333333333333 313 267.8333333333333 C 310.336 267.8333333333333 310.336 263.8333333333333 313 263.8333333333333 Z"></path><path fill="#50B432" d="M 483 263.8333333333333 C 485.664 263.8333333333333 485.664 267.8333333333333 483 267.8333333333333 C 480.336 267.8333333333333 480.336 263.8333333333333 483 263.8333333333333 Z"></path><path fill="#50B432" d="M 68 157.5 C 70.664 157.5 70.664 161.5 68 161.5 C 65.336 161.5 65.336 157.5 68 157.5 Z"></path><path fill="#50B432" d="M 408 24.58333333333337 C 410.664 24.58333333333337 410.664 28.58333333333337 408 28.58333333333337 C 405.336 28.58333333333337 405.336 24.58333333333337 408 24.58333333333337 Z"></path><path fill="#50B432" d="M 395 237.25 C 397.664 237.25 397.664 241.25 395 241.25 C 392.336 241.25 392.336 237.25 395 237.25 Z"></path><path fill="#50B432" d="M 286 157.5 C 288.664 157.5 288.664 161.5 286 161.5 C 283.336 161.5 283.336 157.5 286 157.5 Z"></path><path fill="#50B432" d="M 367 104.33333333333334 C 369.664 104.33333333333334 369.664 108.33333333333334 367 108.33333333333334 C 364.336 108.33333333333334 364.336 104.33333333333334 367 104.33333333333334 Z"></path><path fill="#50B432" d="M 197 130.91666666666669 C 199.664 130.91666666666669 199.664 134.91666666666669 197 134.91666666666669 C 194.336 134.91666666666669 194.336 130.91666666666669 197 130.91666666666669 Z"></path><path fill="#50B432" d="M 102 24.58333333333337 C 104.664 24.58333333333337 104.664 28.58333333333337 102 28.58333333333337 C 99.336 28.58333333333337 99.336 24.58333333333337 102 24.58333333333337 Z"></path><path fill="#50B432" d="M 415 263.8333333333333 C 417.664 263.8333333333333 417.664 267.8333333333333 415 267.8333333333333 C 412.336 267.8333333333333 412.336 263.8333333333333 415 263.8333333333333 Z"></path><path fill="#50B432" d="M 483 237.25 C 485.664 237.25 485.664 241.25 483 241.25 C 480.336 241.25 480.336 237.25 483 237.25 Z"></path><path fill="#50B432" d="M 456 263.8333333333333 C 458.664 263.8333333333333 458.664 267.8333333333333 456 267.8333333333333 C 453.336 267.8333333333333 453.336 263.8333333333333 456 263.8333333333333 Z"></path><path fill="#50B432" d="M 122 51.166666666666686 C 124.664 51.166666666666686 124.664 55.166666666666686 122 55.166666666666686 C 119.336 55.166666666666686 119.336 51.166666666666686 122 51.166666666666686 Z"></path><path fill="#50B432" d="M 122 210.66666666666669 C 124.664 210.66666666666669 124.664 214.66666666666669 122 214.66666666666669 C 119.336 214.66666666666669 119.336 210.66666666666669 122 210.66666666666669 Z"></path><path fill="#50B432" d="M 68 184.08333333333334 C 70.664 184.08333333333334 70.664 188.08333333333334 68 188.08333333333334 C 65.336 188.08333333333334 65.336 184.08333333333334 68 184.08333333333334 Z"></path><path fill="#50B432" d="M 367 24.58333333333337 C 369.664 24.58333333333337 369.664 28.58333333333337 367 28.58333333333337 C 364.336 28.58333333333337 364.336 24.58333333333337 367 24.58333333333337 Z"></path><path fill="#50B432" d="M 129 24.58333333333337 C 131.664 24.58333333333337 131.664 28.58333333333337 129 28.58333333333337 C 126.336 28.58333333333337 126.336 24.58333333333337 129 24.58333333333337 Z"></path><path fill="#50B432" d="M 449 184.08333333333334 C 451.664 184.08333333333334 451.664 188.08333333333334 449 188.08333333333334 C 446.336 188.08333333333334 446.336 184.08333333333334 449 184.08333333333334 Z"></path><path fill="#50B432" d="M 95 130.91666666666669 C 97.664 130.91666666666669 97.664 134.91666666666669 95 134.91666666666669 C 92.336 134.91666666666669 92.336 130.91666666666669 95 130.91666666666669 Z"></path><path fill="#50B432" d="M 74 130.91666666666669 C 76.664 130.91666666666669 76.664 134.91666666666669 74 134.91666666666669 C 71.336 134.91666666666669 71.336 130.91666666666669 74 130.91666666666669 Z"></path><path fill="#50B432" d="M 258 237.25 C 260.664 237.25 260.664 241.25 258 241.25 C 255.336 241.25 255.336 237.25 258 237.25 Z"></path><path fill="#50B432" d="M 95 24.58333333333337 C 97.664 24.58333333333337 97.664 28.58333333333337 95 28.58333333333337 C 92.336 28.58333333333337 92.336 24.58333333333337 95 24.58333333333337 Z"></path><path fill="#50B432" d="M 88 24.58333333333337 C 90.664 24.58333333333337 90.664 28.58333333333337 88 28.58333333333337 C 85.336 28.58333333333337 85.336 24.58333333333337 88 24.58333333333337 Z"></path><path fill="#50B432" d="M 204 104.33333333333334 C 206.664 104.33333333333334 206.664 108.33333333333334 204 108.33333333333334 C 201.336 108.33333333333334 201.336 104.33333333333334 204 104.33333333333334 Z"></path><path fill="#50B432" d="M 429 24.58333333333337 C 431.664 24.58333333333337 431.664 28.58333333333337 429 28.58333333333337 C 426.336 28.58333333333337 426.336 24.58333333333337 429 24.58333333333337 Z"></path><path fill="#50B432" d="M 68 210.66666666666669 C 70.664 210.66666666666669 70.664 214.66666666666669 68 214.66666666666669 C 65.336 214.66666666666669 65.336 210.66666666666669 68 210.66666666666669 Z"></path><path fill="#50B432" d="M 429 263.8333333333333 C 431.664 263.8333333333333 431.664 267.8333333333333 429 267.8333333333333 C 426.336 267.8333333333333 426.336 263.8333333333333 429 263.8333333333333 Z"></path><path fill="#50B432" d="M 415 24.58333333333337 C 417.664 24.58333333333337 417.664 28.58333333333337 415 28.58333333333337 C 412.336 28.58333333333337 412.336 24.58333333333337 415 24.58333333333337 Z"></path><path fill="#50B432" d="M 122 130.91666666666669 C 124.664 130.91666666666669 124.664 134.91666666666669 122 134.91666666666669 C 119.336 134.91666666666669 119.336 130.91666666666669 122 130.91666666666669 Z"></path><path fill="#50B432" d="M 422 24.58333333333337 C 424.664 24.58333333333337 424.664 28.58333333333337 422 28.58333333333337 C 419.336 28.58333333333337 419.336 24.58333333333337 422 24.58333333333337 Z"></path><path fill="#50B432" d="M 211 51.166666666666686 C 213.664 51.166666666666686 213.664 55.166666666666686 211 55.166666666666686 C 208.336 55.166666666666686 208.336 51.166666666666686 211 51.166666666666686 Z"></path><path fill="#50B432" d="M 68 263.8333333333333 C 70.664 263.8333333333333 70.664 267.8333333333333 68 267.8333333333333 C 65.336 267.8333333333333 65.336 263.8333333333333 68 263.8333333333333 Z"></path><path fill="#50B432" d="M 449 157.5 C 451.664 157.5 451.664 161.5 449 161.5 C 446.336 161.5 446.336 157.5 449 157.5 Z"></path><path fill="#50B432" d="M 190 24.58333333333337 C 192.664 24.58333333333337 192.664 28.58333333333337 190 28.58333333333337 C 187.336 28.58333333333337 187.336 24.58333333333337 190 24.58333333333337 Z"></path><path fill="#50B432" d="M 231 51.166666666666686 C 233.664 51.166666666666686 233.664 55.166666666666686 231 55.166666666666686 C 228.336 55.166666666666686 228.336 51.166666666666686 231 51.166666666666686 Z"></path><path fill="#50B432" d="M 476 24.58333333333337 C 478.664 24.58333333333337 478.664 28.58333333333337 476 28.58333333333337 C 473.336 28.58333333333337 473.336 24.58333333333337 476 24.58333333333337 Z"></path><path fill="#50B432" d="M 286 130.91666666666669 C 288.664 130.91666666666669 288.664 134.91666666666669 286 134.91666666666669 C 283.336 134.91666666666669 283.336 130.91666666666669 286 130.91666666666669 Z"></path><path fill="#50B432" d="M 258 237.25 C 260.664 237.25 260.664 241.25 258 241.25 C 255.336 241.25 255.336 237.25 258 237.25 Z"></path><path fill="#50B432" d="M 68 51.166666666666686 C 70.664 51.166666666666686 70.664 55.166666666666686 68 55.166666666666686 C 65.336 55.166666666666686 65.336 51.166666666666686 68 51.166666666666686 Z"></path><path fill="#50B432" d="M 483 210.66666666666669 C 485.664 210.66666666666669 485.664 214.66666666666669 483 214.66666666666669 C 480.336 214.66666666666669 480.336 210.66666666666669 483 210.66666666666669 Z"></path><path fill="#50B432" d="M 122 263.8333333333333 C 124.664 263.8333333333333 124.664 267.8333333333333 122 267.8333333333333 C 119.336 267.8333333333333 119.336 263.8333333333333 122 263.8333333333333 Z"></path><path fill="#50B432" d="M 183 184.08333333333334 C 185.664 184.08333333333334 185.664 188.08333333333334 183 188.08333333333334 C 180.336 188.08333333333334 180.336 184.08333333333334 183 184.08333333333334 Z"></path><path fill="#50B432" d="M 68 51.166666666666686 C 70.664 51.166666666666686 70.664 55.166666666666686 68 55.166666666666686 C 65.336 55.166666666666686 65.336 51.166666666666686 68 51.166666666666686 Z"></path><path fill="#50B432" d="M 449 237.25 C 451.664 237.25 451.664 241.25 449 241.25 C 446.336 241.25 446.336 237.25 449 237.25 Z"></path><path fill="#50B432" d="M 156 51.166666666666686 C 158.664 51.166666666666686 158.664 55.166666666666686 156 55.166666666666686 C 153.336 55.166666666666686 153.336 51.166666666666686 156 51.166666666666686 Z"></path><path fill="#50B432" d="M 122 237.25 C 124.664 237.25 124.664 241.25 122 241.25 C 119.336 241.25 119.336 237.25 122 237.25 Z"></path><path fill="#50B432" d="M 367 77.75 C 369.664 77.75 369.664 81.75 367 81.75 C 364.336 81.75 364.336 77.75 367 77.75 Z"></path><path fill="#50B432" d="M 102 24.58333333333337 C 104.664 24.58333333333337 104.664 28.58333333333337 102 28.58333333333337 C 99.336 28.58333333333337 99.336 24.58333333333337 102 24.58333333333337 Z"></path><path fill="#50B432" d="M 286 104.33333333333334 C 288.664 104.33333333333334 288.664 108.33333333333334 286 108.33333333333334 C 283.336 108.33333333333334 283.336 104.33333333333334 286 104.33333333333334 Z"></path><path fill="#50B432" d="M 408 157.5 C 410.664 157.5 410.664 161.5 408 161.5 C 405.336 161.5 405.336 157.5 408 157.5 Z"></path><path fill="#50B432" d="M 81 24.58333333333337 C 83.664 24.58333333333337 83.664 28.58333333333337 81 28.58333333333337 C 78.336 28.58333333333337 78.336 24.58333333333337 81 24.58333333333337 Z"></path><path fill="#50B432" d="M 456 24.58333333333337 C 458.664 24.58333333333337 458.664 28.58333333333337 456 28.58333333333337 C 453.336 28.58333333333337 453.336 24.58333333333337 456 24.58333333333337 Z"></path><path fill="#50B432" d="M 197 263.8333333333333 C 199.664 263.8333333333333 199.664 267.8333333333333 197 267.8333333333333 C 194.336 267.8333333333333 194.336 263.8333333333333 197 263.8333333333333 Z"></path><path fill="#50B432" d="M 408 263.8333333333333 C 410.664 263.8333333333333 410.664 267.8333333333333 408 267.8333333333333 C 405.336 267.8333333333333 405.336 263.8333333333333 408 263.8333333333333 Z"></path><path fill="#50B432" d="M 286 184.08333333333334 C 288.664 184.08333333333334 288.664 188.08333333333334 286 188.08333333333334 C 283.336 188.08333333333334 283.336 184.08333333333334 286 184.08333333333334 Z"></path><path fill="#50B432" d="M 429 24.58333333333337 C 431.664 24.58333333333337 431.664 28.58333333333337 429 28.58333333333337 C 426.336 28.58333333333337 426.336 24.58333333333337 429 24.58333333333337 Z"></path><path fill="#50B432" d="M 156 51.166666666666686 C 158.664 51.166666666666686 158.664 55.166666666666686 156 55.166666666666686 C 153.336 55.166666666666686 153.336 51.166666666666686 156 51.166666666666686 Z"></path><path fill="#50B432" d="M 122 210.66666666666669 C 124.664 210.66666666666669 124.664 214.66666666666669 122 214.66666666666669 C 119.336 214.66666666666669 119.336 210.66666666666669 122 210.66666666666669 Z"></path><path fill="#50B432" d="M 122 157.5 C 124.664 157.5 124.664 161.5 122 161.5 C 119.336 161.5 119.336 157.5 122 157.5 Z"></path><path fill="#50B432" d="M 367 77.75 C 369.664 77.75 369.664 81.75 367 81.75 C 364.336 81.75 364.336 77.75 367 77.75 Z"></path><path fill="#50B432" d="M 204 263.8333333333333 C 206.664 263.8333333333333 206.664 267.8333333333333 204 267.8333333333333 C 201.336 267.8333333333333 201.336 263.8333333333333 204 263.8333333333333 Z"></path><path fill="#50B432" d="M 204 263.8333333333333 C 206.664 263.8333333333333 206.664 267.8333333333333 204 267.8333333333333 C 201.336 267.8333333333333 201.336 263.8333333333333 204 263.8333333333333 Z"></path><path fill="#50B432" d="M 68 184.08333333333334 C 70.664 184.08333333333334 70.664 188.08333333333334 68 188.08333333333334 C 65.336 188.08333333333334 65.336 184.08333333333334 68 184.08333333333334 Z"></path><path fill="#50B432" d="M 197 263.8333333333333 C 199.664 263.8333333333333 199.664 267.8333333333333 197 267.8333333333333 C 194.336 267.8333333333333 194.336 263.8333333333333 197 263.8333333333333 Z"></path><path fill="#50B432" d="M 401 24.58333333333337 C 403.664 24.58333333333337 403.664 28.58333333333337 401 28.58333333333337 C 398.336 28.58333333333337 398.336 24.58333333333337 401 24.58333333333337 Z"></path><path fill="#50B432" d="M 367 210.66666666666669 C 369.664 210.66666666666669 369.664 214.66666666666669 367 214.66666666666669 C 364.336 214.66666666666669 364.336 210.66666666666669 367 210.66666666666669 Z"></path><path fill="#50B432" d="M 286 51.166666666666686 C 288.664 51.166666666666686 288.664 55.166666666666686 286 55.166666666666686 C 283.336 55.166666666666686 283.336 51.166666666666686 286 51.166666666666686 Z"></path><path fill="#50B432" d="M 367 130.91666666666669 C 369.664 130.91666666666669 369.664 134.91666666666669 367 134.91666666666669 C 364.336 134.91666666666669 364.336 130.91666666666669 367 130.91666666666669 Z"></path><path fill="#50B432" d="M 429 77.75 C 431.664 77.75 431.664 81.75 429 81.75 C 426.336 81.75 426.336 77.75 429 77.75 Z"></path><path fill="#50B432" d="M 395 263.8333333333333 C 397.664 263.8333333333333 397.664 267.8333333333333 395 267.8333333333333 C 392.336 267.8333333333333 392.336 263.8333333333333 395 263.8333333333333 Z"></path><path fill="#50B432" d="M 231 51.166666666666686 C 233.664 51.166666666666686 233.664 55.166666666666686 231 55.166666666666686 C 228.336 55.166666666666686 228.336 51.166666666666686 231 51.166666666666686 Z"></path><path fill="#50B432" d="M 367 24.58333333333337 C 369.664 24.58333333333337 369.664 28.58333333333337 367 28.58333333333337 C 364.336 28.58333333333337 364.336 24.58333333333337 367 24.58333333333337 Z"></path><path fill="#50B432" d="M 68 77.75 C 70.664 77.75 70.664 81.75 68 81.75 C 65.336 81.75 65.336 77.75 68 77.75 Z"></path><path fill="#50B432" d="M 286 77.75 C 288.664 77.75 288.664 81.75 286 81.75 C 283.336 81.75 283.336 77.75 286 77.75 Z"></path><path fill="#50B432" d="M 183 184.08333333333334 C 185.664 184.08333333333334 185.664 188.08333333333334 183 188.08333333333334 C 180.336 188.08333333333334 180.336 184.08333333333334 183 184.08333333333334 Z"></path><path fill="#50B432" d="M 367 210.66666666666669 C 369.664 210.66666666666669 369.664 214.66666666666669 367 214.66666666666669 C 364.336 214.66666666666669 364.336 210.66666666666669 367 210.66666666666669 Z"></path><path fill="#50B432" d="M 231 237.25 C 233.664 237.25 233.664 241.25 231 241.25 C 228.336 241.25 228.336 237.25 231 237.25 Z"></path><path fill="#50B432" d="M 68 77.75 C 70.664 77.75 70.664 81.75 68 81.75 C 65.336 81.75 65.336 77.75 68 77.75 Z"></path><path fill="#50B432" d="M 177 237.25 C 179.664 237.25 179.664 241.25 177 241.25 C 174.336 241.25 174.336 237.25 177 237.25 Z"></path><path fill="#50B432" d="M 286 77.75 C 288.664 77.75 288.664 81.75 286 81.75 C 283.336 81.75 283.336 77.75 286 77.75 Z"></path><path fill="#50B432" d="M 149 24.58333333333337 C 151.664 24.58333333333337 151.664 28.58333333333337 149 28.58333333333337 C 146.336 28.58333333333337 146.336 24.58333333333337 149 24.58333333333337 Z"></path><path fill="#50B432" d="M 483 51.166666666666686 C 485.664 51.166666666666686 485.664 55.166666666666686 483 55.166666666666686 C 480.336 55.166666666666686 480.336 51.166666666666686 483 51.166666666666686 Z"></path><path fill="#50B432" d="M 136 24.58333333333337 C 138.664 24.58333333333337 138.664 28.58333333333337 136 28.58333333333337 C 133.336 28.58333333333337 133.336 24.58333333333337 136 24.58333333333337 Z"></path><path fill="#50B432" d="M 95 130.91666666666669 C 97.664 130.91666666666669 97.664 134.91666666666669 95 134.91666666666669 C 92.336 134.91666666666669 92.336 130.91666666666669 95 130.91666666666669 Z"></path><path fill="#50B432" d="M 122 157.5 C 124.664 157.5 124.664 161.5 122 161.5 C 119.336 161.5 119.336 157.5 122 157.5 Z"></path><path fill="#50B432" d="M 483 184.08333333333334 C 485.664 184.08333333333334 485.664 188.08333333333334 483 188.08333333333334 C 480.336 188.08333333333334 480.336 184.08333333333334 483 184.08333333333334 Z"></path></g></g><g class="highcharts-legend" transform="translate(259,360)"><g><g><g class="highcharts-legend-item" transform="translate(8,3)"><path fill="#50B432" d="M 8 9 C 10.664 9 10.664 13 8 13 C 5.336 13 5.336 9 8 9 Z"></path><text x="21" style="color:#333;font-size:9pt;font-weight:normal;cursor:pointer;font-family:'lucida grande','lucida sans unicode',arial,helvetica,sans-serif;text-transform:none;fill:#333;" text-anchor="start" y="15"><tspan>Series 1</tspan></text></g></g></g></g><g class="highcharts-axis-labels highcharts-xaxis-labels"><text x="45" style="color:#000000;cursor:default;font-size:10px;font-family:'arial', sans-serif;text-transform:none;font-weight:normal;fill:#000000;" text-anchor="middle" transform="translate(0,0)" y="347" opacity="1">180</text><text x="113.125" style="color:#000000;cursor:default;font-size:10px;font-family:'arial', sans-serif;text-transform:none;font-weight:normal;fill:#000000;" text-anchor="middle" transform="translate(0,0)" y="347" opacity="1">190</text><text x="181.25" style="color:#000000;cursor:default;font-size:10px;font-family:'arial', sans-serif;text-transform:none;font-weight:normal;fill:#000000;" text-anchor="middle" transform="translate(0,0)" y="347" opacity="1">200</text><text x="249.375" style="color:#000000;cursor:default;font-size:10px;font-family:'arial', sans-serif;text-transform:none;font-weight:normal;fill:#000000;" text-anchor="middle" transform="translate(0,0)" y="347" opacity="1">210</text><text x="317.5" style="color:#000000;cursor:default;font-size:10px;font-family:'arial', sans-serif;text-transform:none;font-weight:normal;fill:#000000;" text-anchor="middle" transform="translate(0,0)" y="347" opacity="1">220</text><text x="385.625" style="color:#000000;cursor:default;font-size:10px;font-family:'arial', sans-serif;text-transform:none;font-weight:normal;fill:#000000;" text-anchor="middle" transform="translate(0,0)" y="347" opacity="1">230</text><text x="453.75" style="color:#000000;cursor:default;font-size:10px;font-family:'arial', sans-serif;text-transform:none;font-weight:normal;fill:#000000;" text-anchor="middle" transform="translate(0,0)" y="347" opacity="1">240</text><text x="521.875" style="color:#000000;cursor:default;font-size:10px;font-family:'arial', sans-serif;text-transform:none;font-weight:normal;fill:#000000;" text-anchor="middle" transform="translate(0,0)" y="347" opacity="1">250</text><text x="581.65625" style="color:#000000;cursor:default;font-size:10px;font-family:'arial', sans-serif;text-transform:none;font-weight:normal;fill:#000000;" text-anchor="middle" transform="translate(0,0)" y="347" opacity="1">260</text></g><g class="highcharts-axis-labels highcharts-yaxis-labels"><text x="30" style="color:#000000;cursor:default;font-size:10px;font-family:'arial', sans-serif;text-transform:none;font-weight:normal;fill:#000000;width:188px;text-overflow:clip;" text-anchor="end" transform="translate(0,0)" y="333" opacity="1"><tspan>-190</tspan></text><text x="30" style="color:#000000;cursor:default;font-size:10px;font-family:'arial', sans-serif;text-transform:none;font-weight:normal;fill:#000000;width:188px;text-overflow:clip;" text-anchor="end" transform="translate(0,0)" y="280" opacity="1"><tspan>-188</tspan></text><text x="30" style="color:#000000;cursor:default;font-size:10px;font-family:'arial', sans-serif;text-transform:none;font-weight:normal;fill:#000000;width:188px;text-overflow:clip;" text-anchor="end" transform="translate(0,0)" y="227" opacity="1"><tspan>-186</tspan></text><text x="30" style="color:#000000;cursor:default;font-size:10px;font-family:'arial', sans-serif;text-transform:none;font-weight:normal;fill:#000000;width:188px;text-overflow:clip;" text-anchor="end" transform="translate(0,0)" y="174" opacity="1"><tspan>-184</tspan></text><text x="30" style="color:#000000;cursor:default;font-size:10px;font-family:'arial', sans-serif;text-transform:none;font-weight:normal;fill:#000000;width:188px;text-overflow:clip;" text-anchor="end" transform="translate(0,0)" y="121" opacity="1"><tspan>-182</tspan></text><text x="30" style="color:#000000;cursor:default;font-size:10px;font-family:'arial', sans-serif;text-transform:none;font-weight:normal;fill:#000000;width:188px;text-overflow:clip;" text-anchor="end" transform="translate(0,0)" y="68" opacity="1"><tspan>-180</tspan></text><text x="30" style="color:#000000;cursor:default;font-size:10px;font-family:'arial', sans-serif;text-transform:none;font-weight:normal;fill:#000000;width:188px;text-overflow:clip;" text-anchor="end" transform="translate(0,0)" y="14" opacity="1"><tspan>-178</tspan></text></g><g class="highcharts-tooltip" display="none" style="cursor:default;padding:0;pointer-events:none;white-space:nowrap;" transform="translate(0,0)"><path fill="none" d="M 3.5 0.5 L 13.5 0.5 C 16.5 0.5 16.5 0.5 16.5 3.5 L 16.5 13.5 C 16.5 16.5 16.5 16.5 13.5 16.5 L 3.5 16.5 C 0.5 16.5 0.5 16.5 0.5 13.5 L 0.5 3.5 C 0.5 0.5 0.5 0.5 3.5 0.5"  stroke="black" stroke-opacity="0.049999999999999996" stroke-width="5" transform="translate(1, 1)"></path><path fill="none" d="M 3.5 0.5 L 13.5 0.5 C 16.5 0.5 16.5 0.5 16.5 3.5 L 16.5 13.5 C 16.5 16.5 16.5 16.5 13.5 16.5 L 3.5 16.5 C 0.5 16.5 0.5 16.5 0.5 13.5 L 0.5 3.5 C 0.5 0.5 0.5 0.5 3.5 0.5"  stroke="black" stroke-opacity="0.09999999999999999" stroke-width="3" transform="translate(1, 1)"></path><path fill="none" d="M 3.5 0.5 L 13.5 0.5 C 16.5 0.5 16.5 0.5 16.5 3.5 L 16.5 13.5 C 16.5 16.5 16.5 16.5 13.5 16.5 L 3.5 16.5 C 0.5 16.5 0.5 16.5 0.5 13.5 L 0.5 3.5 C 0.5 0.5 0.5 0.5 3.5 0.5"  stroke="black" stroke-opacity="0.15" stroke-width="1" transform="translate(1, 1)"></path><path fill="rgb(255, 255, 255)" fill-opacity=" 0.85" d="M 3.5 0.5 L 13.5 0.5 C 16.5 0.5 16.5 0.5 16.5 3.5 L 16.5 13.5 C 16.5 16.5 16.5 16.5 13.5 16.5 L 3.5 16.5 C 0.5 16.5 0.5 16.5 0.5 13.5 L 0.5 3.5 C 0.5 0.5 0.5 0.5 3.5 0.5"></path><text x="8" style="font-size:12px;color:#000000;fill:#000000;" y="20"></text></g><text x="590" text-anchor="end" style="cursor:pointer;color:#909090;font-size:9px;fill:#909090;" y="395">meta-chart.com</text></svg>